<svg width="30" height="30" viewBox="0 0 30 30" fill="none" xmlns="http://www.w3.org/2000/svg">
<rect opacity="0.2" width="30" height="30" rx="15" fill="#CCCCCC"/>
<g opacity="0.5">
<path d="M9.16669 18.5C9.16669 17.6014 9.16669 17.1521 9.36895 16.822C9.48212 16.6374 9.6374 16.4821 9.82208 16.3689C10.1521 16.1667 10.6014 16.1667 11.5 16.1667C12.3986 16.1667 12.8479 16.1667 13.178 16.3689C13.3626 16.4821 13.5179 16.6374 13.6311 16.822C13.8334 17.1521 13.8334 17.6014 13.8334 18.5C13.8334 19.3986 13.8334 19.8479 13.6311 20.178C13.5179 20.3626 13.3626 20.5179 13.178 20.6311C12.8479 20.8333 12.3986 20.8333 11.5 20.8333C10.6014 20.8333 10.1521 20.8333 9.82208 20.6311C9.6374 20.5179 9.48212 20.3626 9.36895 20.178C9.16669 19.8479 9.16669 19.3986 9.16669 18.5Z" stroke="#141B34" stroke-width="0.875"/>
<path d="M16.1667 18.5C16.1667 17.6014 16.1667 17.1521 16.3689 16.822C16.4821 16.6374 16.6374 16.4821 16.8221 16.3689C17.1521 16.1667 17.6015 16.1667 18.5 16.1667C19.3986 16.1667 19.8479 16.1667 20.178 16.3689C20.3627 16.4821 20.5179 16.6374 20.6311 16.822C20.8334 17.1521 20.8334 17.6014 20.8334 18.5C20.8334 19.3986 20.8334 19.8479 20.6311 20.178C20.5179 20.3626 20.3627 20.5179 20.178 20.6311C19.8479 20.8333 19.3986 20.8333 18.5 20.8333C17.6015 20.8333 17.1521 20.8333 16.8221 20.6311C16.6374 20.5179 16.4821 20.3626 16.3689 20.178C16.1667 19.8479 16.1667 19.3986 16.1667 18.5Z" stroke="#141B34" stroke-width="0.875"/>
<path d="M9.16669 11.5C9.16669 10.6014 9.16669 10.1521 9.36895 9.82205C9.48212 9.63737 9.6374 9.48209 9.82208 9.36892C10.1521 9.16666 10.6014 9.16666 11.5 9.16666C12.3986 9.16666 12.8479 9.16666 13.178 9.36892C13.3626 9.48209 13.5179 9.63737 13.6311 9.82205C13.8334 10.1521 13.8334 10.6014 13.8334 11.5C13.8334 12.3986 13.8334 12.8479 13.6311 13.1779C13.5179 13.3626 13.3626 13.5179 13.178 13.6311C12.8479 13.8333 12.3986 13.8333 11.5 13.8333C10.6014 13.8333 10.1521 13.8333 9.82208 13.6311C9.6374 13.5179 9.48212 13.3626 9.36895 13.1779C9.16669 12.8479 9.16669 12.3986 9.16669 11.5Z" stroke="#141B34" stroke-width="0.875"/>
<path d="M16.1667 11.5C16.1667 10.6014 16.1667 10.1521 16.3689 9.82205C16.4821 9.63737 16.6374 9.48209 16.8221 9.36892C17.1521 9.16666 17.6015 9.16666 18.5 9.16666C19.3986 9.16666 19.8479 9.16666 20.178 9.36892C20.3627 9.48209 20.5179 9.63737 20.6311 9.82205C20.8334 10.1521 20.8334 10.6014 20.8334 11.5C20.8334 12.3986 20.8334 12.8479 20.6311 13.1779C20.5179 13.3626 20.3627 13.5179 20.178 13.6311C19.8479 13.8333 19.3986 13.8333 18.5 13.8333C17.6015 13.8333 17.1521 13.8333 16.8221 13.6311C16.6374 13.5179 16.4821 13.3626 16.3689 13.1779C16.1667 12.8479 16.1667 12.3986 16.1667 11.5Z" stroke="#141B34" stroke-width="0.875"/>
</g>
</svg>
