<svg width="20" height="20" viewBox="0 0 20 20" fill="none" xmlns="http://www.w3.org/2000/svg">
<g opacity="0.5">
<path d="M7.48625 1.66666C5.14741 1.71995 3.78131 1.94258 2.84793 2.87273C2.03102 3.68681 1.75795 4.83119 1.66666 6.66666M12.5137 1.66666C14.8526 1.71995 16.2187 1.94258 17.1521 2.87273C17.969 3.68681 18.2421 4.83119 18.3333 6.66666M12.5137 18.3333C14.8526 18.2801 16.2187 18.0574 17.1521 17.1272C17.969 16.3132 18.2421 15.1688 18.3333 13.3333M7.48625 18.3333C5.14741 18.2801 3.78131 18.0574 2.84793 17.1272C2.03102 16.3132 1.75795 15.1688 1.66666 13.3333" stroke="black" stroke-width="1.25" stroke-linecap="round" stroke-linejoin="round"/>
<path d="M12.5 12.5L14.1667 14.1667M13.3333 9.58334C13.3333 7.51225 11.6544 5.83334 9.58334 5.83334C7.51224 5.83334 5.83334 7.51225 5.83334 9.58334C5.83334 11.6544 7.51224 13.3333 9.58334 13.3333C11.6544 13.3333 13.3333 11.6544 13.3333 9.58334Z" stroke="black" stroke-width="1.25" stroke-linecap="round" stroke-linejoin="round"/>
</g>
</svg>
