<svg width="50" height="50" viewBox="0 0 50 50" fill="none" xmlns="http://www.w3.org/2000/svg">
<rect opacity="0.2" width="50" height="50" rx="25" fill="#CCCCCC"/>
<g opacity="0.5">
<path d="M17.5 20.8333H20" stroke="black" stroke-width="1.25" stroke-linecap="round" stroke-linejoin="round"/>
<path d="M17.5 29.1667H22.5" stroke="black" stroke-width="1.25" stroke-linecap="round" stroke-linejoin="round"/>
<path d="M30 29.1667H32.5" stroke="black" stroke-width="1.25" stroke-linecap="round" stroke-linejoin="round"/>
<path d="M27.5 20.8333H32.5" stroke="black" stroke-width="1.25" stroke-linecap="round" stroke-linejoin="round"/>
<path d="M20 20.8333C20 20.0568 20 19.6685 20.1269 19.3622C20.296 18.9538 20.6205 18.6294 21.0289 18.4602C21.3352 18.3333 21.7234 18.3333 22.5 18.3333C23.2766 18.3333 23.6648 18.3333 23.9712 18.4602C24.3795 18.6294 24.704 18.9538 24.8732 19.3622C25 19.6685 25 20.0568 25 20.8333C25 21.6099 25 21.9982 24.8732 22.3045C24.704 22.7129 24.3795 23.0373 23.9712 23.2065C23.6648 23.3333 23.2766 23.3333 22.5 23.3333C21.7234 23.3333 21.3352 23.3333 21.0289 23.2065C20.6205 23.0373 20.296 22.7129 20.1269 22.3045C20 21.9982 20 21.6099 20 20.8333Z" stroke="black" stroke-width="1.25"/>
<path d="M25 29.1667C25 28.3901 25 28.0018 25.1268 27.6955C25.296 27.2872 25.6205 26.9627 26.0288 26.7935C26.3352 26.6667 26.7234 26.6667 27.5 26.6667C28.2766 26.6667 28.6648 26.6667 28.9712 26.7935C29.3795 26.9627 29.704 27.2872 29.8732 27.6955C30 28.0018 30 28.3901 30 29.1667C30 29.9432 30 30.3315 29.8732 30.6378C29.704 31.0462 29.3795 31.3707 28.9712 31.5398C28.6648 31.6667 28.2766 31.6667 27.5 31.6667C26.7234 31.6667 26.3352 31.6667 26.0288 31.5398C25.6205 31.3707 25.296 31.0462 25.1268 30.6378C25 30.3315 25 29.9432 25 29.1667Z" stroke="black" stroke-width="1.25"/>
</g>
</svg>
